<?xml version="1.0" standalone="no"?>
<!DOCTYPE svg PUBLIC "-//W3C//DTD SVG 20010904//EN"
 "http://www.w3.org/TR/2001/REC-SVG-20010904/DTD/svg10.dtd">
<svg version="1.0" xmlns="http://www.w3.org/2000/svg"
 width="600.000000pt" height="600.000000pt" viewBox="0 0 600.000000 600.000000"
 preserveAspectRatio="xMidYMid meet">

<g transform="translate(0.000000,600.000000) scale(0.100000,-0.100000)"
fill="#9d0000" stroke="none">
<path d="M2765 5990 c-1013 -84 -1898 -656 -2394 -1548 -444 -798 -489 -1795
-119 -2641 98 -223 255 -485 404 -671 155 -193 416 -439 620 -582 746 -524
1708 -680 2584 -417 481 144 895 392 1256 753 486 486 779 1091 859 1771 21
179 21 504 1 685 -66 584 -304 1139 -684 1590 -98 117 -308 322 -422 414 -369
295 -820 503 -1300 600 -214 43 -581 64 -805 46z m632 -84 c334 -50 613 -137
898 -278 782 -387 1351 -1099 1553 -1943 60 -250 76 -390 76 -685 0 -300 -16
-438 -80 -697 -258 -1057 -1090 -1889 -2147 -2147 -1042 -256 -2150 82 -2863
872 -404 447 -650 972 -740 1575 -21 147 -29 496 -15 653 56 589 271 1125 637
1584 88 109 335 356 444 444 447 356 972 572 1550 635 124 14 564 5 687 -13z"/>
<path d="M2946 5788 c-3 -7 -6 -86 -9 -175 l-4 -163 38 0 39 0 2 48 c1 26 2
57 2 70 0 22 3 23 66 20 l65 -3 -3 -72 -4 -73 40 0 39 0 6 122 c4 66 7 145 7
175 l0 53 -40 0 -40 0 0 -65 0 -65 -65 0 -64 0 -3 68 -3 67 -33 3 c-20 2 -34
-2 -36 -10z"/>
<path d="M2724 5783 c-28 -4 -32 -10 -51 -66 l-20 -62 -33 53 c-28 45 -37 52
-64 52 -60 0 -60 -11 -1 -90 30 -40 55 -75 55 -77 0 -2 -16 -42 -35 -89 -19
-46 -35 -86 -35 -89 0 -7 40 -6 67 1 16 4 24 18 33 53 19 78 24 80 65 18 36
-54 37 -55 78 -50 23 3 43 7 45 8 2 2 -25 39 -58 83 l-62 81 32 78 c17 43 34
84 37 91 3 6 -1 11 -8 10 -8 0 -28 -3 -45 -5z"/>
<path d="M3415 5761 c-7 -12 -69 -331 -64 -335 2 -2 22 -7 44 -10 44 -7 29
-21 191 173 l21 25 -17 -70 c-10 -39 -21 -91 -25 -116 -7 -45 -7 -46 25 -53
17 -4 33 -5 35 -3 1 1 18 76 36 166 36 178 36 182 -23 182 -22 0 -43 -19 -114
-105 -48 -58 -88 -105 -89 -105 -1 0 9 48 21 108 30 139 30 139 -6 144 -17 3
-33 2 -35 -1z"/>
<path d="M2242 5690 c-51 -15 -95 -30 -96 -32 -5 -5 85 -312 94 -321 8 -9 210
44 210 55 0 4 -4 18 -9 31 l-10 25 -66 -19 -66 -18 -10 26 c-16 43 -7 55 49
71 44 12 52 18 52 39 0 32 -19 37 -79 19 l-52 -15 -10 26 c-15 39 -7 48 55 63
57 13 65 24 50 64 -7 19 2 20 -112 -14z"/>
<path d="M3849 5613 c-31 -70 -36 -138 -13 -165 23 -25 74 -48 109 -48 l25 0
-21 -52 c-33 -82 -33 -82 3 -96 17 -6 35 -8 39 -4 8 9 119 298 119 310 0 6 -8
12 -17 15 -10 2 -25 8 -34 12 -13 5 -22 -8 -44 -64 -15 -39 -30 -71 -34 -71
-5 0 -22 5 -40 11 -42 15 -49 46 -22 115 l21 55 -27 10 c-14 5 -30 12 -35 15
-4 3 -18 -16 -29 -43z"/>
<path d="M1885 5560 c-60 -27 -114 -51 -119 -53 -6 -2 -5 -16 3 -35 l13 -31
40 20 c22 11 44 17 47 12 4 -4 31 -63 60 -130 l53 -122 34 17 c19 8 34 19 34
23 0 4 -24 62 -54 129 l-55 121 44 21 c44 21 44 22 29 50 -8 15 -16 28 -17 28
-1 0 -51 -23 -112 -50z"/>
<path d="M4191 5333 l-85 -146 23 -18 c13 -11 29 -19 35 -19 7 0 27 27 46 59
28 51 36 59 51 50 26 -13 32 -46 20 -99 -15 -66 -14 -75 17 -91 15 -7 30 -15
34 -17 9 -5 28 92 28 146 0 27 -5 53 -12 60 -15 15 -18 13 81 52 l83 33 -23
18 c-41 32 -56 31 -129 -6 -40 -20 -74 -34 -77 -32 -2 3 9 29 26 59 17 30 31
58 31 61 0 6 -53 37 -62 37 -2 0 -41 -66 -87 -147z"/>
<path d="M1373 5267 c-56 -39 -102 -76 -102 -80 -1 -4 6 -19 15 -32 l16 -25
32 25 c18 14 37 25 42 25 5 -1 45 -50 88 -110 82 -114 90 -119 126 -75 14 17
13 17 -103 179 l-42 58 37 32 c37 31 37 31 18 54 -10 12 -20 22 -22 22 -1 0
-49 -33 -105 -73z"/>
<path d="M4531 5125 c-62 -75 -111 -137 -109 -138 2 -1 17 -14 33 -29 l31 -28
84 34 c47 18 100 41 118 50 19 10 36 16 38 14 2 -3 -28 -42 -67 -88 l-70 -83
25 -26 c30 -30 14 -43 150 122 l98 119 -23 24 c-12 13 -30 24 -40 24 -13 0
-109 -38 -249 -98 -8 -3 15 29 50 72 101 120 97 113 68 142 l-24 25 -113 -136z"/>
<path d="M2825 5244 c-313 -33 -547 -97 -803 -219 -455 -218 -820 -582 -1042
-1040 -159 -326 -224 -614 -224 -985 0 -303 45 -549 149 -816 118 -304 287
-556 531 -795 345 -337 769 -544 1260 -615 159 -23 447 -23 608 0 913 132
1648 788 1872 1672 50 198 67 341 67 554 1 459 -124 871 -379 1255 -170 256
-448 520 -711 675 -255 151 -534 251 -823 295 -101 15 -423 27 -505 19z m506
-54 c459 -68 893 -287 1228 -620 334 -333 544 -740 628 -1220 28 -163 26 -561
-5 -725 -87 -462 -277 -833 -595 -1161 -333 -345 -729 -556 -1207 -645 -167
-30 -478 -38 -660 -14 -246 31 -466 97 -695 209 -672 329 -1127 969 -1227
1726 -18 139 -15 421 6 565 73 490 286 916 631 1260 376 375 840 593 1378 645
129 12 358 4 518 -20z"/>
<path d="M2380 4820 l0 -150 260 0 260 0 0 -459 0 -459 53 -30 c30 -17 81 -60
114 -96 271 -296 210 -848 -116 -1041 l-51 -30 0 -137 0 -138 175 0 175 0 -1
378 0 377 341 3 340 2 0 -380 0 -380 180 0 180 0 -2 868 -3 867 -175 0 -175 0
-3 -342 -2 -343 -340 0 -340 0 0 670 0 670 255 0 255 0 0 150 0 150 -690 0
-690 0 0 -150z"/>
<path d="M2130 3926 l0 -85 -32 -5 c-18 -3 -60 -8 -93 -11 -264 -27 -458 -140
-553 -323 -52 -99 -71 -173 -78 -297 -17 -275 95 -512 296 -628 90 -52 202
-80 403 -102 l57 -6 0 -100 0 -99 175 0 175 0 0 99 0 100 58 6 c117 12 199 28
275 52 l77 24 -1 247 0 247 -18 -57 c-10 -31 -28 -69 -40 -85 -56 -70 -170
-123 -298 -138 l-53 -6 0 392 0 392 73 -6 c161 -12 273 -89 318 -220 l18 -52
1 243 0 243 -43 18 c-52 22 -161 47 -242 56 -33 3 -74 8 -92 11 l-32 5 -3 82
-3 82 -172 3 -173 2 0 -84z m-2 -773 l-3 -388 -60 4 c-227 13 -356 151 -355
380 1 142 56 272 140 327 52 35 150 62 223 63 l57 1 -2 -387z"/>
<path d="M2595 2111 c-55 -10 -156 -32 -225 -49 -188 -46 -279 -56 -373 -42
l-77 12 -23 -28 c-12 -16 -73 -89 -136 -164 l-114 -135 29 -6 c54 -12 258 -9
354 5 52 8 188 30 303 50 306 53 459 48 575 -20 l42 -25 0 200 c0 180 -2 199
-17 206 -42 15 -240 13 -338 -4z"/>
<path d="M3125 2124 c-83 -12 -75 10 -75 -214 l0 -200 33 20 c17 11 61 29 96
40 119 37 274 27 661 -46 145 -28 405 -43 472 -27 l37 8 -120 145 c-169 203
-143 184 -232 170 -91 -15 -175 -5 -382 45 -77 18 -167 38 -200 44 -68 13
-245 22 -290 15z"/>
<path d="M1650 1630 c0 -20 7 -20 603 -20 l602 0 28 -30 c63 -67 215 -66 278
1 l27 29 561 0 c554 0 561 0 561 20 0 20 -7 20 -578 20 l-579 0 -11 -26 c-33
-72 -230 -69 -240 4 l-3 22 -625 0 c-617 0 -624 0 -624 -20z"/>
<path d="M2815 1353 c-106 -27 -132 -184 -38 -232 29 -15 96 -14 111 1 9 9 12
9 12 -3 0 -34 -73 -79 -126 -79 -22 0 -25 -4 -22 -32 3 -32 4 -33 48 -30 71 4
107 20 144 64 40 46 62 126 51 187 -16 96 -90 147 -180 124z m84 -94 c20 -36
8 -77 -26 -85 -53 -14 -90 43 -59 91 22 34 64 31 85 -6z"/>
<path d="M2475 1328 c-22 -11 -41 -21 -43 -23 -1 -1 1 -16 4 -33 6 -31 6 -31
36 -16 16 9 32 13 35 11 2 -3 5 -68 6 -144 l2 -138 43 -3 42 -3 0 185 0 186
-42 0 c-24 -1 -61 -10 -83 -22z"/>
<path d="M3050 1315 l0 -35 80 0 c44 0 80 -2 80 -5 0 -3 -31 -68 -70 -145 -38
-77 -70 -142 -70 -145 0 -3 20 -5 43 -5 l44 0 76 161 c43 88 77 171 77 185 l0
24 -130 0 -130 0 0 -35z"/>
<path d="M3396 1288 c-4 -35 -9 -78 -13 -95 l-5 -33 48 0 c67 0 98 -18 102
-57 5 -55 -64 -79 -139 -48 -12 5 -18 -2 -23 -26 -7 -39 0 -45 65 -54 104 -14
189 44 189 130 0 66 -38 106 -108 113 -49 4 -52 6 -52 33 l0 29 75 0 75 0 0
35 0 35 -104 0 -103 0 -7 -62z"/>
<path d="M1075 5018 l-77 -73 117 -122 c64 -68 122 -123 129 -123 6 0 44 33
84 73 l73 74 -20 24 -20 24 -48 -47 c-27 -27 -54 -48 -60 -48 -6 0 -21 13 -32
28 l-20 29 44 43 45 44 -22 23 -22 23 -46 -45 -46 -45 -24 25 -24 25 47 48 47
48 -23 23 -24 22 -78 -73z"/>
<path d="M4945 4870 c-22 -69 -34 -92 -50 -95 -11 -3 -53 -12 -94 -20 -41 -9
-77 -17 -79 -19 -2 -2 9 -18 25 -36 l28 -31 63 20 c41 12 62 15 59 8 -42 -109
-43 -115 -21 -144 11 -14 25 -28 30 -30 6 -2 23 38 39 88 33 102 29 99 143
118 39 7 72 17 72 21 0 5 -11 21 -24 37 l-24 27 -57 -18 c-31 -9 -59 -16 -61
-13 -2 2 6 28 20 58 l23 54 -25 32 c-13 18 -27 33 -31 33 -3 0 -19 -41 -36
-90z"/>
<path d="M820 4733 c-41 -53 -77 -101 -78 -105 -2 -5 7 -17 20 -28 l23 -19 31
36 30 36 110 -86 109 -86 22 27 c13 15 23 30 23 34 0 4 -47 43 -105 88 -58 45
-105 85 -105 90 0 5 12 23 27 40 l27 32 -25 19 c-13 10 -26 19 -29 19 -3 0
-39 -44 -80 -97z"/>
<path d="M595 4397 c-27 -50 -51 -97 -53 -102 -1 -6 37 -33 85 -60 105 -58
133 -84 133 -123 0 -24 5 -31 27 -36 33 -9 43 5 43 61 0 35 -6 48 -35 77 -19
19 -64 51 -100 71 -36 20 -65 39 -65 41 0 4 21 39 36 62 2 2 55 -26 119 -62
64 -36 121 -66 126 -66 8 0 43 60 37 64 -9 7 -295 166 -299 166 -2 0 -26 -42
-54 -93z"/>
<path d="M5225 4375 c-76 -41 -143 -79 -148 -84 -5 -5 -2 -22 7 -40 l17 -31
59 30 c33 16 63 30 67 30 8 0 63 -92 63 -104 0 -3 -27 -19 -60 -36 -33 -17
-60 -35 -60 -40 0 -17 23 -60 33 -60 5 0 43 18 83 40 41 22 107 58 148 80 l75
41 -20 33 -20 34 -52 -29 c-29 -16 -55 -29 -59 -29 -8 0 -58 93 -58 108 0 4
25 20 55 35 l55 27 -17 35 c-9 19 -19 35 -22 35 -3 0 -69 -34 -146 -75z"/>
<path d="M452 4115 c-20 -43 -15 -52 57 -107 39 -29 70 -56 70 -60 1 -5 -42
-8 -95 -8 l-95 0 -15 -36 c-8 -20 -13 -38 -10 -41 2 -3 61 1 129 8 68 7 132 9
142 5 13 -5 16 -15 13 -42 -4 -31 0 -37 24 -50 25 -13 28 -12 38 5 16 31 12
91 -10 127 -17 27 -122 128 -216 207 -20 17 -21 16 -32 -8z"/>
<path d="M5284 3943 l-42 -4 11 -35 c10 -33 12 -34 59 -34 52 0 55 -3 72 -72
5 -23 1 -29 -29 -48 -37 -23 -41 -39 -22 -81 l12 -26 146 105 146 105 -15 48
-16 49 -140 -2 c-78 -1 -160 -3 -182 -5z m266 -60 c0 -7 -94 -73 -104 -73 -3
0 -26 57 -26 66 0 2 26 5 58 7 31 2 60 4 65 5 4 1 7 -1 7 -5z"/>
<path d="M312 3688 l-11 -43 62 -64 62 -63 -40 6 c-22 3 -54 8 -72 12 -30 6
-32 5 -39 -30 -3 -20 -5 -38 -3 -39 11 -7 331 -68 335 -64 3 2 7 20 10 39 l6
34 -71 13 c-44 8 -71 18 -71 25 0 25 41 49 102 60 58 10 62 13 70 45 5 18 7
35 4 38 -3 3 -39 0 -82 -5 -60 -8 -82 -16 -103 -36 l-27 -26 -43 55 c-23 29
-51 61 -61 70 -16 15 -18 13 -28 -27z"/>
<path d="M5585 3565 c-55 -41 -108 -74 -118 -75 -10 0 -26 13 -35 30 -13 22
-24 30 -46 30 -27 0 -28 -2 -23 -37 9 -55 47 -87 130 -111 82 -24 245 -57 251
-51 3 2 1 20 -3 39 -6 32 -10 35 -54 42 -26 5 -68 11 -94 16 l-47 7 82 49 c84
51 90 60 76 114 -4 12 -9 22 -13 21 -3 0 -51 -34 -106 -74z"/>
<path d="M407 3246 c-86 -24 -159 -45 -161 -47 -2 -2 -6 -26 -7 -53 l-3 -49
149 -52 c83 -29 160 -55 173 -59 20 -7 22 -4 22 33 0 37 -2 40 -37 51 -53 17
-56 23 -49 73 7 43 9 45 51 56 44 11 45 12 45 51 0 26 -4 40 -12 39 -7 0 -84
-20 -171 -43z m33 -104 c0 -16 -3 -31 -6 -34 -3 -4 -33 3 -67 15 l-62 21 45
12 c76 20 90 18 90 -14z"/>
<path d="M5417 3193 c-4 -3 -7 -21 -7 -40 l0 -33 75 0 c68 0 75 -2 75 -20 0
-27 -31 -52 -88 -71 -46 -15 -47 -17 -50 -61 l-3 -46 73 29 c44 18 83 41 99
59 l26 31 72 -57 c40 -31 75 -54 78 -51 3 4 2 26 -1 51 -7 42 -10 46 -79 88
l-72 43 50 3 c87 4 95 8 95 47 l0 35 -168 0 c-93 0 -172 -3 -175 -7z"/>
<path d="M351 2862 c-45 -23 -71 -59 -78 -110 -4 -26 -11 -42 -19 -42 -24 0
-14 -70 10 -70 6 0 19 -18 29 -40 37 -80 124 -110 210 -72 53 23 77 55 84 112
4 24 11 40 19 40 22 0 18 61 -4 67 -10 2 -27 23 -38 46 -37 80 -132 111 -213
69z m147 -78 c40 -27 27 -41 -45 -48 -38 -4 -83 -9 -100 -12 -42 -8 -43 8 -4
47 25 24 38 29 78 29 28 0 58 -7 71 -16z m30 -140 c-26 -56 -125 -73 -175 -30
-22 19 -25 26 -13 30 17 6 132 23 172 25 26 1 27 0 16 -25z"/>
<path d="M5410 2816 c0 -13 -2 -30 -5 -38 -3 -8 10 -21 37 -33 41 -19 43 -22
40 -60 -4 -49 -11 -56 -59 -64 -34 -6 -39 -10 -47 -44 -5 -20 -8 -39 -5 -41 4
-4 348 50 354 56 2 2 6 24 10 50 l7 48 -157 75 c-87 41 -161 75 -166 75 -5 0
-9 -11 -9 -24z m202 -138 c42 -18 47 -23 31 -29 -28 -10 -109 -15 -105 -6 1 4
2 18 2 32 0 31 8 31 72 3z"/>
<path d="M557 2220 c-34 -27 -36 -68 -4 -98 44 -41 107 -16 107 42 0 64 -55
94 -103 56z"/>
<path d="M5356 2216 c-15 -14 -26 -34 -26 -46 0 -27 43 -70 70 -70 26 0 70 43
70 68 0 28 -30 60 -62 68 -21 4 -33 0 -52 -20z"/>
<path d="M4167 895 c-30 -21 -37 -32 -37 -59 0 -50 -12 -126 -20 -126 -3 0
-19 27 -35 60 -16 33 -30 60 -32 60 -14 0 -63 -33 -63 -42 0 -11 145 -286 159
-300 3 -4 21 1 39 12 l32 20 -35 63 c-19 35 -32 67 -28 70 3 4 19 7 35 7 20 0
43 -13 77 -45 l49 -46 36 17 c20 10 36 21 36 25 0 4 -30 32 -66 63 -47 40 -74
56 -95 56 -34 0 -33 -7 -14 100 8 47 15 86 15 88 0 8 -20 -1 -53 -23z"/>
<path d="M1770 853 c-45 -80 -49 -121 -15 -161 16 -19 44 -37 68 -44 23 -6 44
-13 46 -14 2 -2 -11 -28 -28 -58 -17 -31 -31 -59 -31 -64 0 -5 15 -15 33 -24
l33 -16 83 155 c45 86 81 157 79 158 -2 1 -17 10 -35 19 l-31 16 -37 -65 c-36
-65 -50 -74 -85 -55 -41 22 -43 45 -10 111 17 33 30 62 28 64 -2 1 -17 10 -35
19 l-31 16 -32 -57z"/>
<path d="M2300 504 c-97 -165 -99 -174 -38 -174 19 0 32 9 48 35 24 38 28 40
83 24 34 -9 37 -13 37 -47 0 -49 8 -59 54 -67 l39 -8 -6 54 c-4 30 -9 112 -13
182 -7 141 -4 135 -80 151 l-31 7 -93 -157z m128 -27 c-3 -32 -4 -33 -35 -25
l-33 9 32 62 33 62 3 -37 c2 -21 2 -53 0 -71z"/>
<path d="M3549 648 l-37 -9 -7 -180 c-4 -99 -5 -182 -3 -184 2 -3 21 0 41 6
34 9 36 12 39 56 3 45 4 46 48 59 48 14 47 15 76 -40 13 -24 20 -27 46 -22 17
3 35 6 40 6 18 0 2 33 -86 178 -92 150 -90 148 -157 130z m83 -190 c-9 -4 -28
-7 -41 -7 -21 -1 -23 2 -17 30 3 17 6 48 6 68 l0 36 34 -60 c31 -53 33 -61 18
-67z"/>
<path d="M2871 494 c4 -80 6 -87 33 -111 26 -22 37 -25 92 -21 l62 4 7 -69 7
-68 37 3 c20 2 35 6 34 11 -2 4 -3 81 -3 172 l0 165 -40 0 -40 0 0 -74 c0 -78
-5 -86 -54 -86 -39 0 -56 30 -56 98 l0 62 -41 0 -41 0 3 -86z"/>
</g>
</svg>
